<svg xmlns="http://www.w3.org/2000/svg" viewBox="0 0 512 512" id="upload">
  <path fill="#272a33" d="M154,406.65723a30.054,30.054,0,0,0-29.05121,22.50195H52.5a7.5,7.5,0,0,0,0,15h72.44989a30.00418,30.00418,0,0,0,58.10022,0H459.5a7.5,7.5,0,0,0,0-15H183.05121A30.054,30.054,0,0,0,154,406.65723Zm0,45a15,15,0,1,1,15-15A15.01672,15.01672,0,0,1,154,451.65723ZM114.627,46.584a7.5,7.5,0,1,0,7.5,7.5A7.5,7.5,0,0,0,114.627,46.584ZM474.5-.34277H37.5a37.54226,37.54226,0,0,0-37.5,37.5v437a37.54227,37.54227,0,0,0,37.5,37.5h437a37.54227,37.54227,0,0,0,37.5-37.5v-437A37.54226,37.54226,0,0,0,474.5-.34277Zm22.5,474.5a22.52554,22.52554,0,0,1-22.5,22.5H37.5a22.52554,22.52554,0,0,1-22.5-22.5V104.65918H180.93622l-37.89276,37.89258a34.84814,34.84814,0,1,0,49.28222,49.2832l28.82618-28.82715V342.94922a34.84814,34.84814,0,1,0,69.69628,0V163.00781L319.67383,191.834a34.848,34.848,0,1,0,49.28271-49.28222l-37.89276-37.89258H497ZM231.522,137.97266a7.499,7.499,0,0,0-8.17334,1.625l-41.62988,41.63086a19.84785,19.84785,0,1,1-28.06885-28.06934l88.31494-88.31543.04053-.041c.42188-.41894.88037-.834,1.40186-1.26464l.16113-.127c.47412-.38183.96143-.74023,1.44531-1.0625l.20606-.13183c.49707-.32227.99267-.61524,1.53515-.90235.02442-.01269.13672-.06933.16114-.081.51709-.26758,1.0371-.50977,1.56836-.72754.02832-.01074.14062-.05469.16894-.06543.54883-.21973,1.1001-.41309,1.62109-.56836.03223-.00977.13233-.03809.16455-.04687.55909-.16309,1.1167-.30079,1.65821-.40918.05908-.00977.1416-.02442.17871-.03125.585-.11133,1.12988-.19239,1.72217-.25293.05224-.00489.10937-.00879.16162-.01368a18.98026,18.98026,0,0,1,3.66406-.002c.0625.00684.12549.01172.18848.0166.54785.05469,1.10888.1377,1.71826.25293l.15918.02832c.5459.1084,1.10791.2461,1.67139.41114.019.00585.12841.03515.147.041.53857.16113,1.08984.35449,1.67969.58984l.15087.0586c.50831.209,1.02832.45117,1.59668.74414.00733.00391.16407.083.17139.08594.481.25683.97656.5498,1.45264.85839l.22265.14161c.48828.32617.97559.68457,1.43409,1.05371l.16992.13379c.499.41015.97265.83691,1.40869,1.2705l.04053.041,88.31494,88.31543a19.84537,19.84537,0,0,1,0,28.06836l-.00049.001a19.846,19.846,0,0,1-28.06885-.001l-41.62939-41.62988a7.50042,7.50042,0,0,0-12.80323,5.30371V342.94922a19.84814,19.84814,0,1,1-39.69628,0V144.90137A7.49874,7.49874,0,0,0,231.522,137.97266ZM497,89.65918H316.06366l-35.37518-35.375-.05127-.05273c-.80127-.80079-1.66553-1.58106-2.521-2.28223-.10791-.08984-.21728-.17676-.27539-.21973-.81934-.66015-1.66894-1.28515-2.53223-1.86133l-.36816-.2373q-1.281-.83056-2.59961-1.53418l-.36914-.18945c-.90039-.46485-1.81738-.89063-2.686-1.248q-.18383-.07617-.36767-.14648c-.96289-.38477-1.93994-.72657-2.91162-1.01758l-.23926-.06836c-1.01709-.29688-2.04395-.54785-3.09961-.75391l-.14941-.02637c-1.0669-.20214-2.12256-.35449-3.063-.44433-.10059-.01074-.20069-.01953-.30274-.02637a33.93377,33.93377,0,0,0-6.31494.001c-.07519.00488-.16308.01269-.21777.01758-1.01514.09765-2.0708.25-3.06836.43945-.063.01074-.2041.03613-.2666.04883-1.00781.19629-2.03467.44726-3.02393.73633l-.27441.07812c-.96436.28906-1.94141.63086-2.90381,1.01563-.123.04687-.24561.0957-.3291.13085-.90772.373-1.82471.79883-2.73926,1.27149l-.37646.19336c-.85645.456-1.72413.96875-2.62647,1.55273l-.32617.21094c-.83838.56055-1.67041,1.1709-2.48828,1.82715-.10547.08105-.208.16211-.26514.21094-.90332.74023-1.76758,1.5205-2.56885,2.32129l-.05127.05273-35.37518,35.375H15v-52.502a22.52554,22.52554,0,0,1,22.5-22.5h437a22.52554,22.52554,0,0,1,22.5,22.5ZM54.627,46.584a7.5,7.5,0,1,0,7.5,7.5A7.5,7.5,0,0,0,54.627,46.584Zm30,0a7.5,7.5,0,1,0,7.5,7.5A7.5,7.5,0,0,0,84.627,46.584Z"></path>
</svg>
